<?xml version="1.0" encoding="UTF-8" standalone="no"?>
<svg
   xmlns:dc="http://purl.org/dc/elements/1.1/"
   xmlns:cc="http://creativecommons.org/ns#"
   xmlns:rdf="http://www.w3.org/1999/02/22-rdf-syntax-ns#"
   xmlns:svg="http://www.w3.org/2000/svg"
   xmlns="http://www.w3.org/2000/svg"
   xmlns:xlink="http://www.w3.org/1999/xlink"
   xmlns:sodipodi="http://sodipodi.sourceforge.net/DTD/sodipodi-0.dtd"
   xmlns:inkscape="http://www.inkscape.org/namespaces/inkscape"
   version="1.1"
   width="128"
   height="128"
   id="svg3489"
   inkscape:version="0.91 r13725"
   sodipodi:docname="hashit.svg">
  <sodipodi:namedview
     pagecolor="#ffffff"
     bordercolor="#666666"
     borderopacity="1"
     objecttolerance="10"
     gridtolerance="10"
     guidetolerance="10"
     inkscape:pageopacity="0"
     inkscape:pageshadow="2"
     inkscape:window-width="1366"
     inkscape:window-height="712"
     id="namedview122"
     showgrid="false"
     inkscape:zoom="1"
     inkscape:cx="-146.87387"
     inkscape:cy="91.317096"
     inkscape:window-x="0"
     inkscape:window-y="30"
     inkscape:window-maximized="1"
     inkscape:current-layer="g4246" />
  <defs
     id="defs3491">
    <linearGradient
       id="linearGradient4806">
      <stop
         id="stop4808"
         style="stop-color:#ffffff;stop-opacity:1"
         offset="0" />
      <stop
         id="stop4810"
         style="stop-color:#ffffff;stop-opacity:0.23529412"
         offset="0.42447853" />
      <stop
         id="stop4812"
         style="stop-color:#ffffff;stop-opacity:0.15686275"
         offset="0.82089913" />
      <stop
         id="stop4814"
         style="stop-color:#ffffff;stop-opacity:0.39215687"
         offset="1" />
    </linearGradient>
    <linearGradient
       id="linearGradient3820-7-2">
      <stop
         id="stop3822-2-6"
         style="stop-color:#3d3d3d;stop-opacity:1"
         offset="0" />
      <stop
         id="stop3864-8-7"
         style="stop-color:#686868;stop-opacity:0.49803922"
         offset="0.5" />
      <stop
         id="stop3824-1-2"
         style="stop-color:#686868;stop-opacity:0"
         offset="1" />
    </linearGradient>
    <linearGradient
       id="linearGradient2867-449-88-871-390-598-476-591-434-148-57-177-3-8">
      <stop
         id="stop3750-8-9"
         style="stop-color:#90dbec;stop-opacity:1"
         offset="0" />
      <stop
         id="stop3752-3-2"
         style="stop-color:#42baea;stop-opacity:1"
         offset="0.26238" />
      <stop
         id="stop3754-7-2"
         style="stop-color:#3689e6;stop-opacity:1"
         offset="0.704952" />
      <stop
         id="stop3756-9-3"
         style="stop-color:#2b63a0;stop-opacity:1"
         offset="1" />
    </linearGradient>
    <linearGradient
       x1="71.204407"
       y1="15.369057"
       x2="71.204407"
       y2="40.495617"
       id="linearGradient3293"
       xlink:href="#linearGradient4806"
       gradientUnits="userSpaceOnUse"
       gradientTransform="matrix(2.3666586,0,0,2.3666586,-138.8162,-33.951438)" />
    <radialGradient
       cx="99.157013"
       cy="186.17059"
       r="62.769119"
       fx="99.157013"
       fy="186.17059"
       id="radialGradient3300"
       xlink:href="#linearGradient3820-7-2"
       gradientUnits="userSpaceOnUse"
       gradientTransform="matrix(0.38235362,0,0,0.11948554,-5.913044,34.255311)" />
    <radialGradient
       cx="3.9722471"
       cy="8.4497671"
       r="19.99999"
       fx="3.9722471"
       fy="8.4497671"
       id="radialGradient4145"
       xlink:href="#linearGradient2867-449-88-871-390-598-476-591-434-148-57-177-3-8"
       gradientUnits="userSpaceOnUse"
       gradientTransform="matrix(0,3.5958841,-3.8040162,-9.7874431e-8,60.325324,-10.821248)" />
    <linearGradient
       x1="18.775953"
       y1="4.0378027"
       x2="18.203465"
       y2="45.962208"
       id="linearGradient3552"
       xlink:href="#linearGradient6036"
       gradientUnits="userSpaceOnUse"
       gradientTransform="matrix(0.5808777,0,0,-0.5808775,17.85737,46.52194)" />
    <linearGradient
       id="linearGradient6036">
      <stop
         id="stop6038"
         style="stop-color:#ffffff;stop-opacity:1"
         offset="0" />
      <stop
         id="stop6040"
         style="stop-color:#ffffff;stop-opacity:0"
         offset="1" />
    </linearGradient>
    <linearGradient
       id="linearGradient4011">
      <stop
         id="stop4013"
         style="stop-color:#ffffff;stop-opacity:1"
         offset="0" />
      <stop
         id="stop4015"
         style="stop-color:#ffffff;stop-opacity:0.23529412"
         offset="0.507761" />
      <stop
         id="stop4017"
         style="stop-color:#ffffff;stop-opacity:0.15686275"
         offset="0.83456558" />
      <stop
         id="stop4019"
         style="stop-color:#ffffff;stop-opacity:0.39215687"
         offset="1" />
    </linearGradient>
    <linearGradient
       x1="71.204407"
       y1="6.2375584"
       x2="71.204407"
       y2="44.340794"
       id="linearGradient3227"
       xlink:href="#linearGradient4011"
       gradientUnits="userSpaceOnUse"
       gradientTransform="matrix(1.4324324,0,0,1.4324324,-70.753407,-4.322531)" />
    <linearGradient
       id="linearGradient3519">
      <stop
         id="stop3521"
         style="stop-color:#fcd9cd;stop-opacity:1"
         offset="0" />
      <stop
         id="stop3523"
         style="stop-color:#fcd9cd;stop-opacity:0"
         offset="1" />
    </linearGradient>
    <linearGradient
       x1="10.609375"
       y1="17.886322"
       x2="9.7297754"
       y2="20.612656"
       id="linearGradient2485"
       xlink:href="#linearGradient3519"
       gradientUnits="userSpaceOnUse"
       spreadMethod="reflect" />
    <linearGradient
       id="linearGradient3511">
      <stop
         id="stop3513"
         style="stop-color:#ebeec7;stop-opacity:1"
         offset="0" />
      <stop
         id="stop3515"
         style="stop-color:#ebeec7;stop-opacity:0"
         offset="1" />
    </linearGradient>
    <linearGradient
       x1="12.371647"
       y1="16.188046"
       x2="14.609327"
       y2="13.461712"
       id="linearGradient2483"
       xlink:href="#linearGradient3511"
       gradientUnits="userSpaceOnUse"
       spreadMethod="reflect" />
    <linearGradient
       id="linearGradient3503">
      <stop
         id="stop3505"
         style="stop-color:#c4ebdd;stop-opacity:1"
         offset="0" />
      <stop
         id="stop3507"
         style="stop-color:#c4ebdd;stop-opacity:0"
         offset="1" />
    </linearGradient>
    <linearGradient
       x1="14.084608"
       y1="13.045606"
       x2="16.994024"
       y2="10.732353"
       id="linearGradient2481"
       xlink:href="#linearGradient3503"
       gradientUnits="userSpaceOnUse"
       spreadMethod="reflect" />
    <linearGradient
       id="linearGradient3495">
      <stop
         id="stop3497"
         style="stop-color:#c1cbe4;stop-opacity:1"
         offset="0" />
      <stop
         id="stop3499"
         style="stop-color:#c1cbe4;stop-opacity:0"
         offset="1" />
    </linearGradient>
    <linearGradient
       x1="17.494959"
       y1="11.200086"
       x2="21.047453"
       y2="9.7956104"
       id="linearGradient2479"
       xlink:href="#linearGradient3495"
       gradientUnits="userSpaceOnUse"
       spreadMethod="reflect" />
    <linearGradient
       id="linearGradient3487">
      <stop
         id="stop3489"
         style="stop-color:#e6cde2;stop-opacity:1"
         offset="0" />
      <stop
         id="stop3491"
         style="stop-color:#e6cde2;stop-opacity:0"
         offset="1" />
    </linearGradient>
    <linearGradient
       x1="20.580074"
       y1="10.774516"
       x2="24.27351"
       y2="9.8622112"
       id="linearGradient2477"
       xlink:href="#linearGradient3487"
       gradientUnits="userSpaceOnUse"
       spreadMethod="reflect" />
    <linearGradient
       id="linearGradient3428">
      <stop
         id="stop3430"
         style="stop-color:#aaaaaa;stop-opacity:1"
         offset="0" />
      <stop
         id="stop3432"
         style="stop-color:#d4d4d4;stop-opacity:1"
         offset="1" />
    </linearGradient>
    <linearGradient
       x1="21.448364"
       y1="15.5"
       x2="21.448364"
       y2="32.509201"
       id="linearGradient3067"
       xlink:href="#linearGradient3428"
       gradientUnits="userSpaceOnUse"
       gradientTransform="matrix(1.3125,0,0,1.3125,0.5000004,0.4999996)" />
    <linearGradient
       id="linearGradient3772-6">
      <stop
         id="stop3774-6"
         style="stop-color:#b4b4b4;stop-opacity:1"
         offset="0" />
      <stop
         id="stop3776-4"
         style="stop-color:#969696;stop-opacity:1"
         offset="1" />
    </linearGradient>
    <linearGradient
       x1="-21.915663"
       y1="3"
       x2="-21.915663"
       y2="45.032898"
       id="linearGradient3072"
       xlink:href="#linearGradient3772-6"
       gradientUnits="userSpaceOnUse"
       gradientTransform="matrix(1.3414634,0,0,1.3414634,67.233617,-0.1951219)" />
    <linearGradient
       x1="12.2744"
       y1="32.4165"
       x2="35.391201"
       y2="14.2033"
       id="linearGradient3263-6"
       gradientUnits="userSpaceOnUse">
      <stop
         id="stop3265-8"
         style="stop-color:#dedcde;stop-opacity:1"
         offset="0" />
      <stop
         id="stop3267-9"
         style="stop-color:#f0f0f0;stop-opacity:1"
         offset="0.5" />
      <stop
         id="stop3269-2"
         style="stop-color:#d2d2d2;stop-opacity:1"
         offset="1" />
    </linearGradient>
    <linearGradient
       x1="12.2744"
       y1="32.4165"
       x2="35.391201"
       y2="14.2033"
       id="linearGradient3070"
       xlink:href="#linearGradient3263-6"
       gradientUnits="userSpaceOnUse"
       gradientTransform="matrix(0,1.5714424,-1.5714424,0,68.300327,-5.7146267)" />
    <linearGradient
       id="linearGradient23419">
      <stop
         id="stop23421"
         style="stop-color:#000000;stop-opacity:1"
         offset="0" />
      <stop
         id="stop23423"
         style="stop-color:#000000;stop-opacity:0"
         offset="1" />
    </linearGradient>
    <radialGradient
       cx="23.334524"
       cy="41.63604"
       r="22.627417"
       fx="23.334524"
       fy="41.63604"
       id="radialGradient4130"
       xlink:href="#linearGradient23419"
       gradientUnits="userSpaceOnUse"
       gradientTransform="matrix(1.281631,0,0,0.3756156,2.0937489,37.860857)" />
    <linearGradient
       id="linearGradient8838">
      <stop
         id="stop8840"
         style="stop-color:#000000;stop-opacity:1"
         offset="0" />
      <stop
         id="stop8842"
         style="stop-color:#000000;stop-opacity:0"
         offset="1" />
    </linearGradient>
    <linearGradient
       id="linearGradient4011-8">
      <stop
         id="stop4013-9"
         style="stop-color:#ffffff;stop-opacity:1"
         offset="0" />
      <stop
         id="stop4015-2"
         style="stop-color:#ffffff;stop-opacity:0.23529412"
         offset="0.507761" />
      <stop
         id="stop4017-28"
         style="stop-color:#ffffff;stop-opacity:0.15686275"
         offset="0.83456558" />
      <stop
         id="stop4019-23"
         style="stop-color:#ffffff;stop-opacity:0.39215687"
         offset="1" />
    </linearGradient>
    <linearGradient
       id="linearGradient2867-449-88-871-390-598-476-591-434-148-57-177-3-8-8-9">
      <stop
         id="stop3750-8-9-0"
         style="stop-color:#a7ff5c;stop-opacity:1"
         offset="0" />
      <stop
         id="stop3752-3-2-2"
         style="stop-color:#a2d159;stop-opacity:1"
         offset="0.26238" />
      <stop
         id="stop3754-7-2-2"
         style="stop-color:#2b6419;stop-opacity:1"
         offset="0.704952" />
      <stop
         id="stop3756-9-3-05"
         style="stop-color:#36642c;stop-opacity:1"
         offset="1" />
    </linearGradient>
    <linearGradient
       id="linearGradient3104-8-8-97-4-6-2-0-1-4-0-5-8-3-9-1">
      <stop
         id="stop3106-5-4-3-5-0-1-61-9-2-7-3-3-2-6-9"
         style="stop-color:#000000;stop-opacity:0.32173914"
         offset="0" />
      <stop
         id="stop3108-4-3-7-8-2-4-01-9-9-0-6-4-3-7-7"
         style="stop-color:#000000;stop-opacity:0.27826086"
         offset="1" />
    </linearGradient>
    <linearGradient
       id="linearGradient4632-92-3-0-8-1-6-6">
      <stop
         id="stop4634-68-8-0-2-9-1-1"
         style="stop-color:#fafafa;stop-opacity:1"
         offset="0" />
      <stop
         id="stop4636-8-21-7-1-4-9-4"
         style="stop-color:#e1e1e1;stop-opacity:1"
         offset="1" />
    </linearGradient>
    <linearGradient
       id="linearGradient8838-4">
      <stop
         id="stop8840-4"
         style="stop-color:#000000;stop-opacity:1"
         offset="0" />
      <stop
         id="stop8842-8"
         style="stop-color:#000000;stop-opacity:0"
         offset="1" />
    </linearGradient>
    <linearGradient
       id="linearGradient4011-7-0">
      <stop
         id="stop4013-4"
         style="stop-color:#ffffff;stop-opacity:1"
         offset="0" />
      <stop
         id="stop4015-61"
         style="stop-color:#ffffff;stop-opacity:0.23529412"
         offset="0.507761" />
      <stop
         id="stop4017-2"
         style="stop-color:#ffffff;stop-opacity:0.15686275"
         offset="0.83456558" />
      <stop
         id="stop4019-2"
         style="stop-color:#ffffff;stop-opacity:0.39215687"
         offset="1" />
    </linearGradient>
    <linearGradient
       id="linearGradient3820-7-2-1">
      <stop
         id="stop3822-2-6-3"
         style="stop-color:#3d3d3d;stop-opacity:1"
         offset="0" />
      <stop
         id="stop3864-8-7-7"
         style="stop-color:#686868;stop-opacity:0.49803922"
         offset="0.5" />
      <stop
         id="stop3824-1-2-5"
         style="stop-color:#686868;stop-opacity:0"
         offset="1" />
    </linearGradient>
    <linearGradient
       x1="71.204407"
       y1="7.8309216"
       x2="71.204407"
       y2="42.883553"
       id="linearGradient3306"
       xlink:href="#linearGradient4011-7-0"
       gradientUnits="userSpaceOnUse"
       gradientTransform="matrix(0.72972969,0,0,0.72972969,-4.3460816,29.49607)" />
    <linearGradient
       x1="-95.837799"
       y1="54.199703"
       x2="-95.837799"
       y2="5.1757793"
       id="linearGradient3315"
       xlink:href="#linearGradient3104-8-8-97-4-6-2-0-1-4-0-5-8-3-9-1"
       gradientUnits="userSpaceOnUse"
       gradientTransform="matrix(1.1151168,0,0,1.1513607,154.34934,-4.9719397)" />
    <radialGradient
       cx="62.625"
       cy="4.625"
       r="10.625"
       fx="62.625"
       fy="4.625"
       id="radialGradient3318"
       xlink:href="#linearGradient8838-4"
       gradientUnits="userSpaceOnUse"
       gradientTransform="matrix(1.1294118,0,0,0.2823525,-96.887185,56.170571)" />
    <linearGradient
       x1="71.204407"
       y1="6.2375584"
       x2="71.204407"
       y2="44.340794"
       id="linearGradient3325"
       xlink:href="#linearGradient4011-8"
       gradientUnits="userSpaceOnUse"
       gradientTransform="matrix(1.054054,0,0,1.054054,-113.76877,9.7485515)" />
    <radialGradient
       cx="11.208129"
       cy="-0.77444881"
       r="19.99999"
       fx="11.208129"
       fy="-0.77444881"
       id="radialGradient3328"
       xlink:href="#linearGradient2867-449-88-871-390-598-476-591-434-148-57-177-3-8-8-9"
       gradientUnits="userSpaceOnUse"
       gradientTransform="matrix(-3.7664252,3.7880135,-3.4163469,-3.3968766,71.56897,-44.892133)" />
    <radialGradient
       cx="99.157013"
       cy="186.17059"
       r="62.769119"
       fx="99.157013"
       fy="186.17059"
       id="radialGradient3331"
       xlink:href="#linearGradient3820-7-2-1"
       gradientUnits="userSpaceOnUse"
       gradientTransform="matrix(0.27083381,0,0,0.08762273,-65.012843,37.663681)" />
    <radialGradient
       cx="62.625"
       cy="4.625"
       r="10.625"
       fx="62.625"
       fy="4.625"
       id="radialGradient3384"
       xlink:href="#linearGradient8838"
       gradientUnits="userSpaceOnUse"
       gradientTransform="matrix(1.3176471,0,0,0.37647,-34.517651,58.258824)" />
    <radialGradient
       cx="6.2751122"
       cy="8.4497671"
       r="19.99999"
       fx="6.2751122"
       fy="8.4497671"
       id="radialGradient3399"
       xlink:href="#linearGradient4632-92-3-0-8-1-6-6"
       gradientUnits="userSpaceOnUse"
       gradientTransform="matrix(0,1.7065212,-1.8052958,-4.6448879e-8,63.254408,23.291389)" />
    <radialGradient
       xlink:href="#linearGradient23419"
       id="radialGradient3300-9"
       gradientUnits="userSpaceOnUse"
       gradientTransform="matrix(0.3823536,7.5555777e-8,-1.8372241e-8,0.1115198,-5.9254271,36.335849)"
       cx="99.189415"
       cy="185.29727"
       fx="99.189415"
       fy="185.29727"
       r="62.769119" />
    <radialGradient
       inkscape:collect="always"
       xlink:href="#linearGradient23419"
       id="radialGradient4192"
       gradientUnits="userSpaceOnUse"
       gradientTransform="matrix(0.2549024,5.3967361e-8,-1.2248161e-8,0.07965545,6.7163816,44.240666)"
       cx="99.189415"
       cy="185.29727"
       fx="99.189415"
       fy="185.29727"
       r="62.769119" />
  </defs>
  <metadata
     id="metadata3494">
    <rdf:RDF>
      <cc:Work
         rdf:about="">
        <dc:format>image/svg+xml</dc:format>
        <dc:type
           rdf:resource="http://purl.org/dc/dcmitype/StillImage" />
        <dc:title></dc:title>
      </cc:Work>
    </rdf:RDF>
  </metadata>
  <g
     id="g4246"
     transform="matrix(1.9833333,0,0,1.9833333,0.5333344,0.51664284)">
    <g
       id="g4198"
       transform="translate(1.55e-6,-0.00183192)">
      <path
         style="opacity:0.2;fill:url(#radialGradient3300-9);fill-opacity:1;stroke:none"
         id="path3818-0"
         d="m 55.999998,57.0017 a 24,6.9985714 0 1 1 -47.9999991,0 24,6.9985714 0 1 1 47.9999991,0 z"
         inkscape:connector-curvature="0" />
      <path
         inkscape:connector-curvature="0"
         d="m 47.999998,59.0017 a 16,4.9988822 0 1 1 -31.999999,0 16,4.9988822 0 1 1 31.999999,0 z"
         id="path4190"
         style="opacity:0.4;fill:url(#radialGradient4192);fill-opacity:1;stroke:none" />
    </g>
    <path
       inkscape:connector-curvature="0"
       style="color:#000000;display:inline;overflow:visible;visibility:visible;fill:url(#radialGradient3328);fill-opacity:1;fill-rule:nonzero;stroke:none;stroke-width:1;marker:none;enable-background:accumulate"
       id="path2555-9"
       d="m 32.000008,2.4999964 c -16.277082,0 -29.5000035,13.2229156 -29.5000035,29.4999996 0,16.277084 13.2229215,29.500007 29.5000035,29.500003 16.277076,0 29.500012,-13.222919 29.499996,-29.500003 0,-16.277084 -13.22292,-29.4999996 -29.499996,-29.4999996 z" />
    <path
       inkscape:connector-curvature="0"
       style="color:#000000;display:inline;overflow:visible;visibility:visible;opacity:0.5;fill:none;stroke:url(#linearGradient3293);stroke-width:0.51282233;stroke-linecap:round;stroke-linejoin:round;stroke-miterlimit:4;stroke-dasharray:none;stroke-dashoffset:0;stroke-opacity:1;marker:none;enable-background:accumulate"
       id="path3019"
       d="m 60.987291,31.999999 c 0,16.009232 -12.978064,28.98728 -28.987301,28.98728 -16.009216,0 -28.9872725,-12.978048 -28.9872725,-28.98728 0,-16.009233 12.9780565,-28.9872827 28.9872725,-28.9872827 16.009237,0 28.987301,12.9780497 28.987301,28.9872827 z" />
    <path
       inkscape:connector-curvature="0"
       style="color:#000000;display:inline;overflow:visible;visibility:visible;opacity:0.5;fill:#000000;fill-opacity:0;fill-rule:nonzero;stroke:#19440b;stroke-width:0.50420169;stroke-linecap:round;stroke-linejoin:round;stroke-miterlimit:4;stroke-dasharray:none;stroke-dashoffset:0;stroke-opacity:1;marker:none;enable-background:accumulate"
       id="path2555-7-1"
       d="m 32,2.499999 c -16.277082,0 -29.5,13.222915 -29.5,29.499998 0,16.277083 13.222918,29.500005 29.5,29.5 16.27708,0 29.50001,-13.222917 29.5,-29.5 C 61.5,15.722914 48.27708,2.499999 32,2.499999 Z" />
    <path
       inkscape:connector-curvature="0"
       id="path4150-3-6"
       d="m 21.04474,51.826189 c -0.397096,-1.445773 0.622504,-3.142177 0.807773,-4.676979 0.502933,-2.247628 1.230719,-4.467208 1.53376,-6.747246 -2.4284,-0.02697 -4.863538,0.07159 -7.286121,-0.111503 -0.329759,-1.660708 0.187926,-4.219806 2.469457,-3.487252 1.926076,-0.0833 3.877012,0.07706 5.786672,-0.173318 0.697584,-1.626385 0.930936,-3.490435 1.4253,-5.210291 -0.141704,-0.827014 1.358434,-3.00765 0.237213,-3.181586 -2.495255,-0.02485 -4.996707,0.06847 -7.486474,-0.111678 -0.170586,-1.260054 -0.09597,-3.969876 1.865991,-3.512367 2.355278,-0.102682 4.736392,0.113169 7.075452,-0.166915 1.05408,-3.719409 1.837078,-7.514891 2.96187,-11.213542 1.274949,-0.249198 4.373658,-0.758687 3.201748,1.481833 -0.709915,3.26612 -1.632452,6.485634 -2.27582,9.765073 2.05186,0.145974 4.136796,0.175632 6.185608,0.01155 0.61163,-1.527049 0.860009,-3.259896 1.329884,-4.865948 0.556207,-2.121476 1.040891,-4.268499 1.735176,-6.349235 1.003186,-0.22989 4.066587,-0.862961 3.297767,1.068808 -0.742959,3.370478 -1.723157,6.698291 -2.389782,10.077696 1.54304,0.357009 3.246994,0.07229 4.84946,0.168109 1.719244,-0.352152 3.336227,0.249341 2.329584,2.181641 -0.02176,0.989452 -0.487078,1.775032 -1.525515,1.465715 -2.199321,0.01854 -4.403259,-0.05294 -6.598377,0.09496 -0.818268,2.712444 -1.582046,5.472038 -2.095686,8.253081 1.601115,0.349525 3.352502,0.07458 5.008844,0.167496 1.300275,-0.0019 3.935113,-0.383978 2.894023,1.711657 -0.234547,0.814676 -0.21042,2.323848 -1.437349,1.936438 -2.4703,0.01996 -4.944958,-0.05524 -7.411348,0.09543 -1.206533,3.693128 -1.821757,7.56975 -3.098761,11.236735 -1.036588,0.268262 -4.159161,0.854425 -3.286363,-1.142787 0.764335,-3.363066 1.737564,-6.680937 2.395348,-10.06648 -2.022068,-0.185803 -4.09175,-0.181672 -6.114269,-0.02149 -0.677438,1.424394 -0.869586,3.125347 -1.338089,4.661133 -0.599587,2.213085 -1.026541,4.490233 -1.821736,6.640612 -1.043621,0.213813 -2.177521,0.209126 -3.22524,0.02066 z M 34.684601,36.357501 c 0.712753,-2.631755 1.379547,-5.281538 1.908809,-7.956206 -2.054458,-0.26281 -4.183898,-0.256188 -6.240904,-0.01108 -0.799509,2.714076 -1.485353,5.472884 -2.035024,8.248861 2.071046,0.197061 4.160933,0.08389 6.240622,0.113753 0.04217,-0.131776 0.08433,-0.263551 0.126497,-0.395328 z"
       style="opacity:0.15;fill:#000000;fill-opacity:1;stroke:#000000;stroke-width:0.50420171;stroke-miterlimit:4;stroke-dasharray:none;stroke-opacity:1" />
    <path
       inkscape:connector-curvature="0"
       id="path4150-3"
       d="m 21.047579,51.829704 c -0.397096,-1.445773 0.622504,-3.142177 0.807773,-4.676979 0.502933,-2.247628 1.230719,-4.467208 1.53376,-6.747246 -2.4284,-0.02697 -4.863538,0.07159 -7.286121,-0.111503 -0.329759,-1.660708 0.187926,-4.219806 2.469457,-3.487252 1.926076,-0.0833 3.877012,0.07706 5.786672,-0.173318 0.697584,-1.626385 0.930936,-3.490435 1.4253,-5.210291 -0.141704,-0.827014 1.358434,-3.00765 0.237213,-3.181586 -2.495255,-0.02485 -4.996707,0.06847 -7.486474,-0.111678 -0.170586,-1.260054 -0.09597,-3.969876 1.865991,-3.512367 2.355278,-0.102682 4.736392,0.113169 7.075452,-0.166915 1.05408,-3.719409 1.837078,-7.514891 2.96187,-11.213542 1.274949,-0.249198 4.373658,-0.758687 3.201748,1.481833 -0.709915,3.26612 -1.632452,6.485634 -2.27582,9.765073 2.05186,0.145974 4.136796,0.175632 6.185608,0.01155 0.61163,-1.527049 0.860009,-3.259896 1.329884,-4.865948 0.556207,-2.121476 1.040891,-4.268499 1.735176,-6.349235 1.003186,-0.22989 4.066587,-0.862961 3.297767,1.068808 -0.742959,3.370478 -1.723157,6.698291 -2.389782,10.077696 1.54304,0.357009 3.246994,0.07229 4.84946,0.168109 1.719244,-0.352152 3.336227,0.249341 2.329584,2.181641 -0.02176,0.989452 -0.487078,1.775032 -1.525515,1.465715 -2.199321,0.01854 -4.403259,-0.05294 -6.598377,0.09496 -0.818268,2.712444 -1.582046,5.472038 -2.095686,8.253081 1.601115,0.349525 3.352502,0.07458 5.008844,0.167496 1.300275,-0.0019 3.935113,-0.383978 2.894023,1.711657 -0.234547,0.814676 -0.21042,2.323848 -1.437349,1.936438 -2.4703,0.01996 -4.944958,-0.05524 -7.411348,0.09543 -1.206533,3.693128 -1.821757,7.56975 -3.098761,11.236735 -1.036588,0.268262 -4.159161,0.854425 -3.286363,-1.142787 0.764335,-3.363066 1.737564,-6.680937 2.395348,-10.06648 -2.022068,-0.185803 -4.09175,-0.181672 -6.114269,-0.02149 -0.677438,1.424394 -0.869586,3.125347 -1.338089,4.661133 -0.599587,2.213085 -1.026541,4.490233 -1.821736,6.640612 -1.043621,0.213813 -2.177521,0.209126 -3.22524,0.02066 z M 34.68744,36.361016 c 0.712753,-2.631755 1.379547,-5.281538 1.908809,-7.956206 -2.054458,-0.26281 -4.183898,-0.256188 -6.240904,-0.01108 -0.799509,2.714076 -1.485353,5.472884 -2.035024,8.248861 2.071046,0.197061 4.160933,0.08389 6.240622,0.113753 0.04217,-0.131776 0.08433,-0.263551 0.126497,-0.395328 z"
       style="opacity:0.15;fill:#000000;fill-opacity:1;stroke:none;stroke-opacity:1" />
    <path
       inkscape:connector-curvature="0"
       id="path4150"
       d="m 20.53496,51.317091 c -0.397096,-1.445773 0.622504,-3.142177 0.807773,-4.676979 0.502933,-2.247628 1.230719,-4.467208 1.53376,-6.747246 -2.4284,-0.02697 -4.863538,0.07159 -7.286121,-0.111503 -0.329759,-1.660708 0.187926,-4.219806 2.469457,-3.487252 1.926076,-0.0833 3.877012,0.07706 5.786672,-0.173318 0.697584,-1.626385 0.930936,-3.490435 1.4253,-5.210291 -0.141704,-0.827014 1.358435,-3.00765 0.237214,-3.181586 -2.495256,-0.02485 -4.996708,0.06847 -7.486475,-0.111678 -0.170586,-1.260054 -0.09597,-3.969876 1.865991,-3.512367 2.355278,-0.102682 4.736392,0.113169 7.075453,-0.166915 1.05408,-3.719409 1.837078,-7.514891 2.96187,-11.213542 1.274949,-0.249198 4.373658,-0.758687 3.201748,1.481833 -0.709915,3.26612 -1.632452,6.485634 -2.27582,9.765073 2.05186,0.145974 4.136796,0.175632 6.185608,0.01155 0.61163,-1.527049 0.860009,-3.259896 1.329884,-4.865948 0.556207,-2.121476 1.040891,-4.268499 1.735176,-6.349235 1.003186,-0.22989 4.066587,-0.862961 3.297767,1.068808 -0.742959,3.370478 -1.723157,6.698291 -2.389782,10.077696 1.54304,0.357009 3.246994,0.07229 4.84946,0.168109 1.719244,-0.352152 3.336227,0.249341 2.329584,2.181641 -0.02176,0.989452 -0.487078,1.775032 -1.525515,1.465715 -2.199321,0.01854 -4.403259,-0.05294 -6.598377,0.09496 -0.818268,2.712444 -1.582046,5.472038 -2.095686,8.253081 1.601115,0.349525 3.352502,0.07458 5.008844,0.167496 1.300275,-0.0019 3.935113,-0.383978 2.894023,1.711657 -0.234547,0.814676 -0.21042,2.323848 -1.437349,1.936438 -2.4703,0.01996 -4.944958,-0.05524 -7.411348,0.09543 -1.206533,3.693128 -1.821757,7.56975 -3.098761,11.236735 -1.036588,0.268262 -4.159161,0.854425 -3.286363,-1.142787 0.764335,-3.363066 1.737564,-6.680937 2.395348,-10.06648 -2.022068,-0.185803 -4.09175,-0.181672 -6.114269,-0.02149 -0.677438,1.424394 -0.869586,3.125347 -1.338089,4.661133 -0.599588,2.213085 -1.026542,4.490233 -1.821737,6.640612 -1.043621,0.213813 -2.177521,0.209126 -3.22524,0.02066 z M 34.174822,35.848403 c 0.712753,-2.631755 1.379547,-5.281538 1.908809,-7.956206 -2.054458,-0.26281 -4.183898,-0.256188 -6.240904,-0.01108 -0.799509,2.714076 -1.485353,5.472884 -2.035024,8.248861 2.071046,0.197061 4.160933,0.08389 6.240622,0.113753 0.04217,-0.131776 0.08433,-0.263551 0.126497,-0.395328 z"
       style="fill:#ffffff;fill-opacity:1;stroke:none" />
  </g>
</svg>
